HIERARCHY
ROOT hip
{
	OFFSET 0.000000 0.000000 0.000000 
	CHANNELS 6 Xposition Yposition Zposition Xrotation Zrotation Yrotation
	JOINT abdomen
	{
		OFFSET 0.000000 3.402643 0.000000 
		CHANNELS 3 Xrotation Zrotation Yrotation
		JOINT chest
		{
			OFFSET 0.000000 8.438565 -0.680529 
			CHANNELS 3 Xrotation Zrotation Yrotation
			JOINT neck
			{
				OFFSET 0.000000 10.207942 -0.272212 
				CHANNELS 3 Xrotation Zrotation Yrotation
				JOINT head
				{
					OFFSET 0.000000 3.130431 0.000000 
					CHANNELS 3 Xrotation Zrotation Yrotation
					End Site
					{
						OFFSET 0.000000 3.130435 0.000000 
					}
				}
			}
			JOINT lCollar
			{
				OFFSET 3.470700 6.669187 -0.816635 
				CHANNELS 3 Yrotation Zrotation Xrotation
				JOINT lShldr
				{
					OFFSET 3.198488 0.000000 0.000000 
					CHANNELS 3 Zrotation Yrotation Xrotation
					JOINT lForeArm
					{
						OFFSET 10.139888 0.000000 0.000000 
						CHANNELS 3 Yrotation Zrotation Xrotation
						JOINT lHand
						{
							OFFSET 8.370511 0.000000 0.000000 
							CHANNELS 3 Zrotation Yrotation Xrotation
							End Site
							{
								OFFSET 4.083176 0.000000 0.000000 
							}
						}
					}
				}
			}
			JOINT rCollar
			{
				OFFSET -3.470700 6.669187 -0.816635 
				CHANNELS 3 Yrotation Zrotation Xrotation
				JOINT rShldr
				{
					OFFSET -3.198488 0.000000 0.000000 
					CHANNELS 3 Zrotation Yrotation Xrotation
					JOINT rForeArm
					{
						OFFSET -10.139888 0.000000 0.000000 
						CHANNELS 3 Yrotation Zrotation Xrotation
						JOINT rHand
						{
							OFFSET -8.370511 0.000000 0.000000 
							CHANNELS 3 Zrotation Yrotation Xrotation
							End Site
							{
								OFFSET -4.083176 0.000000 0.000000 
							}
						}
					}
				}
			}
		}
	}
	JOINT lThigh
	{
		OFFSET 5.308129 -1.633274 1.361059 
		CHANNELS 3 Xrotation Zrotation Yrotation
		JOINT lShin
		{
			OFFSET -2.041588 -20.007561 0.000000 
			CHANNELS 3 Xrotation Zrotation Yrotation
			JOINT lFoot
			{
				OFFSET 0.000000 -19.190928 -1.224953 
				CHANNELS 3 Xrotation Yrotation Zrotation
				End Site
				{
					OFFSET 0.000000 -2.449906 4.627600 
				}
			}
		}
	}
	JOINT rThigh
	{
		OFFSET -5.308129 -1.633274 1.361059 
		CHANNELS 3 Xrotation Zrotation Yrotation
		JOINT rShin
		{
			OFFSET 2.041588 -20.007561 0.000000 
			CHANNELS 3 Xrotation Zrotation Yrotation
			JOINT rFoot
			{
				OFFSET 0.000000 -19.190928 -1.224953 
				CHANNELS 3 Xrotation Yrotation Zrotation
				End Site
				{
					OFFSET 0.000000 -2.449906 4.627600 
				}
			}
		}
	}
}
MOTION
Frames: 11
Frame Time: 0.033333
0.340061 31.960247 0.340061 -7.714844 -0.009677 -0.008455 25.251602 6.438545 -16.301529 -9.794801 0.268668 13.596138 2.559055 -2.382962 -0.548686 10.524219 0.508720 -0.030344 -3.403480 -5.676797 -7.520930 -61.927719 -37.375244 27.875736 -60.294170 -2.904207 1.735344 25.823107 10.449607 -60.850311 3.541816 3.599060 -7.398855 84.415009 34.509056 -2.613202 54.294525 2.792339 1.868710 67.821800 39.702801 104.207161 -51.314816 9.364433 7.855936 60.607048 0.894157 -4.487749 -3.456824 5.824831 -0.428659 -32.469231 -18.084106 -25.052568 85.183708 -2.666000 4.620090 -32.964348 -9.000666 1.336712 
0.340061 31.471632 0.340061 -7.714844 -0.009677 -0.008455 25.399590 6.485510 -16.288940 -14.491308 0.971120 19.634932 -12.802064 -2.396891 1.222006 10.524219 0.508720 -0.030344 -2.372679 -5.697967 -11.391183 -75.705315 -29.985668 45.069809 -42.844856 -2.563324 2.090856 25.823107 10.449607 -60.850311 5.176276 3.089376 -11.212377 82.009781 22.297220 -10.240787 44.833256 2.603140 2.048006 58.257755 36.396313 94.469170 -45.853542 8.250264 8.501959 42.496197 -0.272979 -3.899915 14.055565 5.544390 -0.579387 -35.679974 -16.001814 -25.947412 72.084625 -1.728147 4.633891 -14.855569 -10.136567 -0.974821 
0.340061 32.448830 0.340061 -7.714844 -0.009677 -0.008455 25.102688 6.394765 -16.323036 -18.416739 1.932281 22.299707 -23.213564 -1.898801 0.921205 10.524219 0.508720 -0.030344 -3.079606 -4.968422 -15.721786 -84.326874 -21.655258 51.872021 -26.285984 -2.158454 2.305974 25.823107 10.449607 -60.850311 5.110960 3.217356 -15.588211 81.786827 12.722628 -11.840278 35.382313 2.379408 2.201424 49.903912 31.945061 85.919350 -40.521534 7.312428 8.946717 27.765316 -1.036404 -3.167195 29.101681 5.214744 -0.877425 -37.557877 -14.227847 -26.844723 60.519794 -0.907732 4.457430 1.473540 -11.208111 -2.426339 
0.340061 35.274948 0.340061 -7.714844 -0.009677 -0.008455 24.193882 6.128866 -16.417074 -21.661392 2.733946 20.797909 -28.340338 -2.078727 -1.955483 10.524219 0.508720 -0.030344 -6.149886 -3.446668 -21.237555 -87.261841 -14.933233 49.260342 -13.239431 -1.806445 2.391517 25.823107 10.449607 -60.850311 2.792111 3.904050 -21.265356 83.645218 5.719772 -7.374623 26.534098 2.157940 2.297899 43.195625 26.955498 79.025169 -35.419765 6.943373 9.101292 21.552837 -1.321843 -2.806619 37.994919 4.762468 -1.820770 -36.089394 -13.032493 -27.503714 52.753376 -0.390649 4.244862 13.544488 -11.392621 -1.850385 
0.340061 38.839489 0.340061 -15.830078 -0.009395 -0.007102 22.950344 5.759894 -16.543577 -24.723530 3.262996 17.302982 -31.350637 -2.938615 -6.102790 10.524219 0.508720 -0.030344 -10.481376 -1.458183 -25.000000 -86.433716 -8.620676 42.275936 -6.320550 -1.610698 2.414036 25.823107 10.449607 -60.850311 -0.756575 4.846466 -25.000000 85.971992 -0.902895 -0.460617 18.924131 1.955835 2.355356 38.179077 22.134443 73.842079 -29.946835 7.166264 9.041723 24.137449 -1.206099 -2.954647 40.741127 3.817871 -3.545209 -30.565441 -12.411069 -28.210669 48.445511 -0.117167 4.087111 21.979551 -9.797268 0.564453 
0.340061 42.737198 0.340061 -24.218752 -0.008906 -0.005760 21.639452 5.369311 -16.671074 -27.561844 3.489652 13.000626 -32.698917 -4.129960 -10.392259 10.524219 0.508720 -0.030344 -14.959979 0.484484 -25.000000 -83.522285 -2.627451 34.279911 -4.523413 -1.561823 2.406958 25.823107 10.449607 -60.850311 -4.610301 5.702786 -25.000000 87.845665 -6.610411 6.820272 13.129119 1.790719 2.385561 34.782337 18.220243 70.307526 -23.789215 7.725043 8.936623 31.213825 -0.891855 -3.358972 40.438721 2.134980 -5.416130 -22.476639 -11.937119 -29.186129 45.530128 0.068604 3.987201 29.038118 -6.512866 3.263870 
0.340061 46.579361 0.340061 -32.812504 -0.008208 -0.004474 20.506544 5.034875 -16.781319 -30.115673 3.505716 9.060200 -32.909256 -5.147732 -13.830249 10.524219 0.508720 -0.030344 -18.553684 1.927826 -25.000000 -80.452332 2.364059 27.819023 -4.800977 -1.572483 2.405901 25.823107 10.449607 -60.850311 -7.783339 6.258718 -25.000000 88.741203 -10.326139 12.730679 9.008283 1.681341 2.397669 32.563404 15.312640 67.993378 -17.462940 8.480913 8.858274 41.071545 -0.344334 -3.850862 38.073338 -0.209470 -6.850550 -13.113749 -11.518538 -30.124262 43.716190 0.175877 3.918823 34.666126 -1.973189 5.383993 
0.340061 49.971809 0.340061 -41.484375 -0.007316 -0.003297 19.809113 4.824941 -16.832479 -32.356380 3.508750 6.641979 -32.587643 -5.559241 -15.335850 10.524219 0.508720 -0.030344 -20.146927 2.546521 -25.000000 -78.057495 5.241776 24.606897 -6.736073 -1.629588 2.406312 25.823107 10.449607 -60.850311 -9.183772 6.371350 -25.000000 88.391594 -11.006256 15.593209 5.871592 1.593484 2.397876 30.978197 13.036745 66.320648 -11.587034 9.321024 8.826157 52.022434 0.310307 -4.241737 34.672501 -2.884706 -7.472018 -3.741674 -11.085675 -30.718592 42.711739 0.219733 3.870699 39.017330 3.024192 6.582080 
0.340061 52.498081 0.340061 -50.175781 -0.006254 -0.002266 19.415773 4.702236 -16.866251 -34.403027 3.613236 5.635352 -31.954664 -5.380054 -14.969337 10.524219 0.508720 -0.030344 -19.798531 2.375490 -25.000000 -76.282448 6.067508 24.290743 -9.903087 -1.717642 2.404833 25.823107 10.449607 -60.850311 -8.807496 6.107472 -25.000000 86.961761 -9.279329 15.544402 3.539964 1.528645 2.397292 29.841875 11.316245 65.127144 -6.687357 10.122618 8.868321 62.370998 1.010340 -4.519437 31.371912 -5.348959 -7.264949 4.389821 -10.776978 -30.725708 42.165543 0.258764 3.850636 42.353165 7.577995 7.048809 
0.340061 53.680721 0.340061 -58.759762 -0.005065 -0.011183 19.052404 4.597739 -16.893547 -36.353016 3.750183 5.094025 -30.886881 -4.929986 -13.617157 10.524219 0.508720 -0.030344 -18.477638 1.732478 -25.000000 -74.531479 5.855394 25.261847 -13.885594 -1.827369 2.391357 25.823107 10.449607 -60.850311 -7.520378 5.547452 -25.000000 85.020454 -6.516616 14.168249 1.843620 1.484093 2.395746 29.034431 10.034002 64.274651 -3.309225 10.725366 8.956852 70.388962 1.595004 -4.639068 29.241989 -7.125977 -6.577188 10.027634 -10.711981 -29.951721 41.804115 0.262049 3.845171 44.838669 10.930005 7.514892 
0.340061 53.092190 0.340061 -67.148438 -0.007585 -0.001534 18.776365 4.515437 -16.924007 -38.196846 3.919107 4.918754 -29.408516 -4.324577 -11.603194 10.524219 0.508720 -0.030344 -16.475060 0.796711 -25.000000 -72.871246 4.693318 27.041267 -18.260345 -1.946528 2.374989 25.823107 10.449607 -60.850311 -5.617341 4.855108 -25.000000 82.644318 -3.209270 11.789294 0.583857 1.447595 2.392853 28.458122 9.076370 63.654705 -2.069803 11.028808 8.986629 74.383629 1.876698 -4.680819 29.319714 -7.985775 -5.951260 11.874179 -10.957098 -28.150217 41.317081 0.314373 3.812616 46.622639 12.333732 8.884512 
